<?xml version="1.0" encoding="utf-8"?>
<!-- Generator: Adobe Illustrator 22.0.0, SVG Export Plug-In . SVG Version: 6.00 Build 0)  -->
<svg version="1.1" id="Layer_1" xmlns="http://www.w3.org/2000/svg" xmlns:xlink="http://www.w3.org/1999/xlink" x="0px" y="0px"
	 viewBox="0 0 100 100" style="enable-background:new 0 0 100 100;" xml:space="preserve">
<style type="text/css">
	.st0{fill:#FFEBEB;}
</style>
<path d="M96,30.6c2.6,6.2,4,12.6,4,19.4s-1.4,13.2-4,19.4s-6.2,11.4-10.6,16c-4.4,4.4-9.8,8-16,10.6s-12.6,4-19.4,4
	s-13.2-1.4-19.4-4s-11.4-6.2-16-10.6c-4.4-4.4-8-9.8-10.6-16S0,56.8,0,50s1.4-13.2,4-19.4s6.2-11.4,10.6-16c4.4-4.4,9.8-8,16-10.6
	S43.2,0,50,0s13.2,1.4,19.4,4s11.4,6.2,16,10.6C89.8,19.2,93.2,24.6,96,30.6z"/>
<path class="st0" d="M65.2,72l8.2-38.6c0.4-1.6,0.2-2.8-0.6-3.6S71.2,29,70,29.4L21.8,48c-1,0.4-1.8,0.8-2.2,1.4
	c-0.4,0.6-0.4,1-0.2,1.4c0.2,0.4,0.8,0.8,1.8,1l12.4,3.8l28.6-18C63,37,63.6,37,64,37.2c0.2,0.2,0.2,0.4-0.2,0.8L40.6,59.2l-1,12.8
	c0.8,0,1.6-0.4,2.6-1.2l6-5.8l12.4,9.2C63.2,75.6,64.6,74.8,65.2,72z"/>
</svg>
